#!OML:ASF H:\ManfredETheater\Project 1\Capture day 1\Session 1\subject.ASF
:FULLY-SPECIFIED
:DEGREES
93
root -1.27948 21.3315 5.1716 -164.152 1.82759 171.931
lowerback 14.4355 -1.9989 -5.27632
upperback -0.223916 -3.39292 0.853146
thorax -7.98988 -1.37424 4.60141
lowerneck -17.6748 0.445325 -1.02156
upperneck 4.7048 1.30813 -2.92711
head 4.24993 0.524005 -0.630994
rclavicle 2.46493e-014 1.98785e-014
rhumerus -56.1368 -4.67649 -84.6818
rradius 92.299
rwrist -7.00716
rhand -27.9847 2.01916
rfingers 7.12502
rthumb -1.37118 -27.9562
lclavicle 2.46493e-014 1.98785e-014
lhumerus -45.8852 -16.083 102.763
lradius 100.32
lwrist 12.4716
lhand -24.5906 -18.0218
lfingers 7.12502
lthumb 1.90694 11.9494
rfemur -53.1735 -4.88557 17.1282
rtibia 57.4481
rfoot -12.6156 -2.88761
rtoes -23.4055
lfemur -15.545 -4.90758 -29.4537
ltibia 68.39
lfoot -6.05033 -8.61154
ltoes -7.67392
94
root -1.22473 21.3713 4.7053 -164.481 1.35944 172.738
lowerback 14.5187 -1.97269 -4.62103
upperback -0.299557 -3.23558 1.13041
thorax -8.15561 -1.31384 4.50597
lowerneck -17.4499 0.312873 -1.10044
upperneck 4.70316 1.14852 -2.99694
head 4.21333 0.440159 -0.654048
rclavicle 1.98785e-015 -4.77083e-015
rhumerus -55.1615 -4.51317 -85.022
rradius 92.6741
rwrist -6.79438
rhand -27.8235 2.04405
rfingers 7.12502
rthumb -1.21542 -27.9322
lclavicle 1.98785e-015 -4.77083e-015
lhumerus -46.5837 -15.4922 102.608
lradius 99.0447
lwrist 12.3431
lhand -24.8736 -18.0017
lfingers 7.12502
lthumb 1.63369 11.9718
rfemur -50.4937 -4.79867 18.2669
rtibia 57.2494
rfoot -14.3808 -4.28171
rtoes -22.9375
lfemur -16.888 -4.36538 -28.0568
ltibia 71.6789
lfoot -6.3615 -7.89867
ltoes -7.56097
95
root -1.17058 21.3667 4.25238 -164.817 0.891114 173.682
lowerback 14.6569 -1.91642 -3.86248
upperback -0.374348 -3.01243 1.44041
thorax -8.35992 -1.22305 4.3757
lowerneck -17.2604 0.149834 -1.17985
upperneck 4.721 0.94646 -3.03798
head 4.18753 0.336592 -0.671325
rclavicle -7.15625e-015 9.54166e-015
rhumerus -54.1563 -4.32667 -85.3459
rradius 93.0921
rwrist -6.67474
rhand -27.7494 2.00183
rfingers 7.12502
rthumb -1.14392 -27.9748
lclavicle -7.15625e-015 9.54166e-015
lhumerus -47.2368 -14.9174 102.437
lradius 97.7199
lwrist 12.2554
lhand -25.2011 -17.9469
lfingers 7.12502
lthumb 1.31731 12.0288
rfemur -47.9736 -4.62345 19.518
rtibia 57.0779
rfoot -16.0417 -5.82348
rtoes -23.3782
lfemur -18.5122 -3.79637 -26.4896
ltibia 75.122
lfoot -6.76512 -7.18711
ltoes -7.21943
96
root -1.11583 21.3565 3.80381 -165.13 0.447033 174.712
lowerback 14.8093 -1.72479 -3.02506
upperback -0.45763 -2.75479 1.76538
thorax -8.58885 -1.18683 4.21984
lowerneck -17.1226 -0.0384808 -1.25516
upperneck 4.77469 0.707908 -3.04463
head 4.18028 0.215939 -0.681416
rclavicle -6.48038e-014 -1.35174e-014
rhumerus -53.128 -4.1025 -85.6555
rradius 93.5505
rwrist -6.60176
rhand -27.7665 1.9046
rfingers 7.12502
rthumb -1.16043 -28.072
lclavicle -6.48038e-014 -1.35174e-014
lhumerus -47.8447 -14.3742 102.236
lradius 96.3606
lwrist 12.1897
lhand -25.568 -17.8566
lfingers 7.12502
lthumb 0.963013 12.121
rfemur -45.4834 -4.37271 20.8231
rtibia 56.8062
rfoot -17.5767 -7.37419
rtoes -24.224
lfemur -20.2966 -3.18807 -24.8086
ltibia 78.4733
lfoot -7.20905 -6.5326
ltoes -6.71378
97
root -1.06105 21.3416 3.35905 -165.396 0.0441509 175.751
lowerback 14.9381 -1.60113 -2.22607
upperback -0.546084 -2.43131 2.08095
thorax -8.80599 -1.05425 4.04859
lowerneck -17.0425 -0.245089 -1.33299
upperneck 4.86265 0.442498 -3.0042
head 4.19223 0.0835174 -0.678713
rclavicle -1.27222e-014 7.15625e-015
rhumerus -52.069 -3.82677 -85.9617
rradius 94.0416
rwrist -6.53141
rhand -27.8945 1.76946
rfingers 7.12502
rthumb -1.28402 -28.2064
lclavicle -1.27222e-014 7.15625e-015
lhumerus -48.4121 -13.8775 101.991
lradius 94.9997
lwrist 12.109
lhand -25.9679 -17.7419
lfingers 7.12502
lthumb 0.576741 12.237
rfemur -43.104 -4.08174 22.1108
rtibia 56.5571
rfoot -18.9529 -8.78466
rtoes -25.1692
lfemur -22.2832 -2.55533 -23.1114
ltibia 81.7453
lfoot -7.74067 -5.94641
ltoes -6.12364
98
root -1.00661 21.3222 2.9173 -165.591 -0.293399 176.733
lowerback 14.9999 -1.44233 -1.50261
upperback -0.643603 -2.07487 2.36517
thorax -8.9915 -0.906747 3.87456
lowerneck -17.031 -0.464216 -1.42114
upperneck 4.99143 0.159178 -2.90908
head 4.22743 -0.0561396 -0.659133
rclavicle 1.63003e-014 -2.38542e-014
rhumerus -50.9876 -3.48708 -86.2646
rradius 94.5694
rwrist -6.40851
rhand -28.1167 1.59567
rfingers 7.12502
rthumb -1.49859 -28.3788
lclavicle 1.63003e-014 -2.38542e-014
lhumerus -48.9554 -13.4453 101.699
lradius 93.684
lwrist 11.9727
lhand -26.3639 -17.6023
lfingers 7.12502
lthumb 0.19429 12.3774
rfemur -40.8286 -3.76888 23.3096
rtibia 56.267
rfoot -20.1828 -9.96712
rtoes -26.0997
lfemur -24.4704 -1.89454 -21.4948
ltibia 84.8299
lfoot -8.31903 -5.45741
ltoes -5.45131
99
root -0.953198 21.2983 2.47748 -165.705 -0.573152 177.607
lowerback 14.9706 -1.2589 -0.887601
upperback -0.752995 -1.70649 2.60389
thorax -9.1324 -0.752032 3.70527
lowerneck -17.073 -0.691644 -1.52953
upperneck 5.1548 -0.135353 -2.75677
head 4.28206 -0.199456 -0.619966
rclavicle -1.19271e-014 1.03368e-014
rhumerus -49.9008 -3.0738 -86.5637
rradius 95.1373
rwrist -6.20887
rhand -28.3945 1.41437
rfingers 7.12502
rthumb -1.76689 -28.5581
lclavicle -1.19271e-014 1.03368e-014
lhumerus -49.512 -13.0865 101.368
lradius 92.477
lwrist 11.74
lhand -26.7298 -17.4581
lfingers 7.12502
lthumb -0.159141 12.5215
rfemur -38.6543 -3.48139 24.3797
rtibia 55.9495
rfoot -21.3267 -10.9111
rtoes -27.0519
lfemur -26.8495 -1.21963 -20.0354
ltibia 87.6878
lfoot -8.9161 -5.09213
ltoes -4.77364
100
root -0.90129 21.272 2.0381 -165.745 -0.795629 178.343
lowerback 14.8464 -1.05474 -0.402251
upperback -0.871277 -1.33651 2.78763
thorax -9.22278 -0.592985 3.54561
lowerneck -17.1616 -0.922229 -1.65355
upperneck 5.34649 -0.433962 -2.56196
head 4.35359 -0.343232 -0.566076
rclavicle 1.19271e-015 -4.53229e-014
rhumerus -48.8341 -2.58511 -86.8564
rradius 95.7648
rwrist -5.93263
rhand -28.6796 1.25066
rfingers 7.12502
rthumb -2.04227 -28.7193
lclavicle 1.19271e-015 -4.53229e-014
lhumerus -50.1147 -12.8158 101.013
lradius 91.4494
lwrist 11.4022
lhand -27.0179 -17.3038
lfingers 7.12502
lthumb -0.437332 12.6755
rfemur -36.5614 -3.24989 25.2902
rtibia 55.5995
rfoot -22.3775 -11.6047
rtoes -27.967
lfemur -29.3966 -0.537019 -18.7948
ltibia 90.2704
lfoot -9.53874 -4.84284
ltoes -4.23313
